<?xml version="1.0" encoding="UTF-8"?>
<svg xmlns="http://www.w3.org/2000/svg" viewBox="0 0 100 100" width="100px" height="100px">
<g id="surface1643821">
<path style=" stroke:none;fill-rule:nonzero;fill:rgb(100%,100%,100%);fill-opacity:1;" d="M 17 21 C 16.449219 21 16 21.449219 16 22 L 16 32 C 16 32.550781 16.449219 33 17 33 L 83 33 C 83.550781 33 84 32.550781 84 32 L 84 22 C 84 21.449219 83.550781 21 83 21 Z M 18 23 L 82 23 L 82 31 L 18 31 L 18 29 L 73.5 29 C 73.679688 29.003906 73.847656 28.90625 73.9375 28.753906 C 74.03125 28.597656 74.03125 28.402344 73.9375 28.246094 C 73.847656 28.09375 73.679688 27.996094 73.5 28 L 18 28 Z M 76.5 28 C 76.320312 27.996094 76.152344 28.09375 76.0625 28.246094 C 75.96875 28.402344 75.96875 28.597656 76.0625 28.753906 C 76.152344 28.90625 76.320312 29.003906 76.5 29 L 78.5 29 C 78.679688 29.003906 78.847656 28.90625 78.9375 28.753906 C 79.03125 28.597656 79.03125 28.402344 78.9375 28.246094 C 78.847656 28.09375 78.679688 27.996094 78.5 28 Z M 17 44 C 16.449219 44 16 44.449219 16 45 L 16 55 C 16 55.550781 16.449219 56 17 56 L 83 56 C 83.550781 56 84 55.550781 84 55 L 84 45 C 84 44.449219 83.550781 44 83 44 Z M 18 46 L 82 46 L 82 54 L 18 54 Z M 22.5 51 C 22.320312 50.996094 22.152344 51.09375 22.0625 51.246094 C 21.96875 51.402344 21.96875 51.597656 22.0625 51.753906 C 22.152344 51.90625 22.320312 52.003906 22.5 52 L 67.5 52 C 67.679688 52.003906 67.847656 51.90625 67.9375 51.753906 C 68.03125 51.597656 68.03125 51.402344 67.9375 51.246094 C 67.847656 51.09375 67.679688 50.996094 67.5 51 Z M 70.5 51 C 70.320312 50.996094 70.152344 51.09375 70.0625 51.246094 C 69.96875 51.402344 69.96875 51.597656 70.0625 51.753906 C 70.152344 51.90625 70.320312 52.003906 70.5 52 L 73.5 52 C 73.679688 52.003906 73.847656 51.90625 73.9375 51.753906 C 74.03125 51.597656 74.03125 51.402344 73.9375 51.246094 C 73.847656 51.09375 73.679688 50.996094 73.5 51 Z M 76.5 51 C 76.320312 50.996094 76.152344 51.09375 76.0625 51.246094 C 75.96875 51.402344 75.96875 51.597656 76.0625 51.753906 C 76.152344 51.90625 76.320312 52.003906 76.5 52 L 78.5 52 C 78.679688 52.003906 78.847656 51.90625 78.9375 51.753906 C 79.03125 51.597656 79.03125 51.402344 78.9375 51.246094 C 78.847656 51.09375 78.679688 50.996094 78.5 51 Z M 17 67 C 16.449219 67 16 67.449219 16 68 L 16 78 C 16 78.550781 16.449219 79 17 79 L 83 79 C 83.550781 79 84 78.550781 84 78 L 84 68 C 84 67.449219 83.550781 67 83 67 Z M 18 69 L 82 69 L 82 74 L 26.5 74 C 26.320312 73.996094 26.152344 74.09375 26.0625 74.246094 C 25.96875 74.402344 25.96875 74.597656 26.0625 74.753906 C 26.152344 74.90625 26.320312 75.003906 26.5 75 L 82 75 L 82 77 L 18 77 Z M 21.5 74 C 21.320312 73.996094 21.152344 74.09375 21.0625 74.246094 C 20.96875 74.402344 20.96875 74.597656 21.0625 74.753906 C 21.152344 74.90625 21.320312 75.003906 21.5 75 L 23.5 75 C 23.679688 75.003906 23.847656 74.90625 23.9375 74.753906 C 24.03125 74.597656 24.03125 74.402344 23.9375 74.246094 C 23.847656 74.09375 23.679688 73.996094 23.5 74 Z M 21.5 74 "/>
</g>
</svg>
